<mxfile host="app.diagrams.net" modified="2023-08-15T07:05:37.104Z" agent="Mozilla/5.0 (Windows NT 10.0; Win64; x64) AppleWebKit/537.36 (KHTML, like Gecko) Chrome/105.0.0.0 Safari/537.36" version="21.6.8" etag="3esreBds1Km_kHJ2Z38M" type="github">
  <diagram name="Page-1" id="fR4bRruJ7Pk9LS7oelqa">
    <mxGraphModel>
      <root>
        <mxCell id="0" />
        <mxCell id="1" parent="0" />
      </root>
    </mxGraphModel>
  </diagram>
</mxfile>
